<svg xmlns="http://www.w3.org/2000/svg" viewBox="0 0 103.27 34.75">
    <g id="Layer_2" data-name="Layer 2">
        <g id="Layer_1-2" data-name="Layer 1">
            <polygon fill="white" points="12.64 0 0 34.74 4.01 34.74 16.68 0 12.64 0"/>
            <polygon fill="white" points="23.19 0 10.55 34.74 14.56 34.74 27.24 0 23.19 0"/>
            <path fill="white" d="M32.67,20.18H36.6V11.85A3.26,3.26,0,0,1,38.74,11c1.22,0,1.78.77,1.78,2.61v6.56h3.91V13.31a9.63,9.63,0,0,0-.1-1.53A3.85,3.85,0,0,1,46.56,11c1.25,0,1.78.74,1.78,2.61v6.56h3.94V13.31c0-3.74-1.54-5.64-4.52-5.64a6.51,6.51,0,0,0-4.32,1.61A3.92,3.92,0,0,0,40,7.67,6,6,0,0,0,36.15,9L35.62,8H32.67Z"/>
            <rect fill="white" x="55.36" y="7.96" width="3.94" height="12.22"/>
            <path fill="white" d="M57.32,6.62c1.61,0,2.48-.77,2.48-2.09s-.87-2.11-2.48-2.11-2.49.79-2.49,2.11S55.72,6.62,57.32,6.62Z"/>
            <polygon fill="white"
                    points="65.77 20.18 69.99 20.18 74.7 7.96 70.4 7.96 67.98 15.88 67.88 15.88 65.46 7.96 61.04 7.96 65.77 20.18"/>
            <path fill="white" d="M84,2.22V8.3a4.87,4.87,0,0,0-2.55-.63c-3.57,0-5.83,2.47-5.83,6.63,0,3.93,2,6.14,5.16,6.14A4.81,4.81,0,0,0,84.38,19l.55,1.16h2.93v-18Zm0,14.21a3.86,3.86,0,0,1-2.21.75c-1.47,0-2.16-1-2.16-2.91,0-2.11.84-3.31,2.61-3.31a3.17,3.17,0,0,1,1.76.5Z"/>
            <polygon fill="white"
                    points="94.34 20.18 98.56 20.18 103.27 7.96 98.97 7.96 96.55 15.88 96.45 15.88 94.03 7.96 89.61 7.96 94.34 20.18"/>
            <path fill="white" d="M35.31,25.31h-.93v5.22h.93v.71H32.67v-.71h.93V25.31h-.93V24.6h2.64Z"/>
            <path fill="white" d="M43.36,24.6v6.64h-.93l-2.5-4.71c-.15-.28-.32-.61-.42-.86h0a7.74,7.74,0,0,1,0,1v4.58h-.78V24.6h.92l2.51,4.72c.15.28.32.6.42.85h0a7.74,7.74,0,0,1-.05-1V24.6Z"/>
            <path fill="white" d="M47.08,31.24V24.6H49c2,0,2.74.89,2.74,3.32S51,31.24,49,31.24Zm.78-.72h1.19c1.39,0,1.89-.68,1.89-2.6s-.5-2.6-1.89-2.6H47.86Z"/>
            <path fill="white" d="M59.71,24.6v4.34c0,1.67-.68,2.39-2.27,2.39s-2.28-.72-2.28-2.39V24.6h.78v4.26c0,1.3.38,1.75,1.5,1.75s1.49-.45,1.49-1.75V24.6Z"/>
            <path fill="white" d="M63.12,31v-.77a4.22,4.22,0,0,0,1.72.38c.93,0,1.45-.39,1.45-1.07,0-.52-.33-.86-1.22-1.27l-.5-.22c-1.08-.48-1.44-1-1.44-1.8,0-1.19.89-1.75,2.2-1.75a4,4,0,0,1,1.68.35l-.21.69a4,4,0,0,0-1.52-.33c-.86,0-1.33.35-1.33,1s.3.88,1.22,1.28l.49.22c1.08.49,1.43,1,1.43,1.79,0,1.23-.92,1.81-2.33,1.81A3.67,3.67,0,0,1,63.12,31Z"/>
            <path fill="white" d="M74.19,25.32H72.31v5.92h-.78V25.32H69.64V24.6h4.55Z"/>
            <path fill="white" d="M77.32,31.24V24.6h1.91c1.72,0,2.57.68,2.57,2.09a1.81,1.81,0,0,1-1.36,1.93l1.26,2.62h-.87l-1.14-2.47-.47,0H78.1v2.45Zm.78-3.14h1.17c1.16,0,1.72-.44,1.72-1.39s-.56-1.4-1.72-1.4H78.1Z"/>
            <path fill="white" d="M87.56,25.31h-.93v5.22h.93v.71H84.91v-.71h.93V25.31h-.93V24.6h2.65Z"/>
            <path fill="white" d="M94.48,28.25H91.77v2.27h3.09v.72H91V24.6h3.87v.72H91.77v2.22h2.71Z"/>
            <path fill="white" d="M97.94,31v-.77a4.23,4.23,0,0,0,1.73.38c.93,0,1.44-.39,1.44-1.07,0-.52-.32-.86-1.22-1.27l-.49-.22c-1.08-.48-1.44-1-1.44-1.8,0-1.19.89-1.75,2.2-1.75a3.9,3.9,0,0,1,1.67.35l-.2.69a4,4,0,0,0-1.52-.33c-.86,0-1.34.35-1.34,1s.31.88,1.22,1.28l.5.22c1.07.49,1.43,1,1.43,1.79,0,1.23-.92,1.81-2.33,1.81A3.72,3.72,0,0,1,97.94,31Z"/>
        </g>
    </g>
</svg>
